<?xml version="1.0" encoding="UTF-8" standalone="no"?>
<svg
   xmlns:dc="http://purl.org/dc/elements/1.1/"
   xmlns:cc="http://creativecommons.org/ns#"
   xmlns:rdf="http://www.w3.org/1999/02/22-rdf-syntax-ns#"
   xmlns:svg="http://www.w3.org/2000/svg"
   xmlns="http://www.w3.org/2000/svg"
   xmlns:sodipodi="http://sodipodi.sourceforge.net/DTD/sodipodi-0.dtd"
   xmlns:inkscape="http://www.inkscape.org/namespaces/inkscape"
   version="1.1"
   x="0px"
   y="0px"
   viewBox="0 0 100 100"
   enable-background="new 0 0 100 100"
   xml:space="preserve"
   id="svg72"
   sodipodi:docname="favicon.svg"
   width="100"
   height="100"
   inkscape:version="0.92.1 r"><metadata
     id="metadata78"><rdf:RDF><cc:Work
         rdf:about=""><dc:format>image/svg+xml</dc:format><dc:type
           rdf:resource="http://purl.org/dc/dcmitype/StillImage" /><dc:title></dc:title></cc:Work></rdf:RDF></metadata><defs
     id="defs76" /><sodipodi:namedview
     pagecolor="#ffffff"
     bordercolor="#666666"
     borderopacity="1"
     objecttolerance="10"
     gridtolerance="10"
     guidetolerance="10"
     inkscape:pageopacity="0"
     inkscape:pageshadow="2"
     inkscape:window-width="1070"
     inkscape:window-height="768"
     id="namedview74"
     showgrid="false"
     inkscape:zoom="3.928"
     inkscape:cx="41.404251"
     inkscape:cy="62.5"
     inkscape:window-x="0"
     inkscape:window-y="23"
     inkscape:window-maximized="0"
     inkscape:current-layer="svg72" /><rect
     x="5"
     y="-20"
     width="90"
     height="90"
     id="rect64"
     style="fill:none" /><path
     style="opacity:1;fill:#ff0000;fill-opacity:1;stroke:#ff0000;stroke-width:1.52749491;stroke-miterlimit:4;stroke-dasharray:none;stroke-opacity:1"
     d="M 41.258992,49.534773 C 31.681095,48.376276 23.845305,45.300176 21.865169,41.921329 l -0.63299,-1.080116 v -8.187918 c 0,-4.503355 0.05371,-8.187918 0.119353,-8.187918 0.06564,0 0.903417,0.507208 1.861717,1.127129 4.045765,2.617193 10.216682,4.463596 17.876364,5.348795 3.907878,0.451619 12.566451,0.524851 16.293279,0.137805 7.878215,-0.818183 14.757897,-2.810518 18.853404,-5.459889 0.981011,-0.634612 1.837362,-1.15384 1.903006,-1.15384 0.06565,0 0.119354,3.684563 0.119354,8.187918 v 8.187918 l -0.632989,1.080116 c -2.009407,3.428792 -9.871843,6.476817 -19.66082,7.621895 -3.979875,0.465551 -12.824023,0.461076 -16.705855,-0.0085 z"
     id="path3778"
     inkscape:connector-curvature="0" /><path
     style="opacity:1;fill:#ff0000;fill-opacity:1;stroke:#ff0000;stroke-width:1.527;stroke-miterlimit:4;stroke-dasharray:none;stroke-opacity:1"
     d="M 45.544807,28.46549 C 44.984725,28.409479 43.23373,28.239769 41.653707,28.088357 30.376728,27.0077 21.232179,22.689191 21.232179,18.4443 c 0,-3.857863 7.907077,-7.756174 18.966395,-9.3507258 4.27886,-0.6169334 14.814827,-0.6169334 19.093687,0 9.466194,1.3648518 16.865445,4.4863748 18.604068,7.8485008 2.3629,4.569346 -6.699147,9.659664 -19.876981,11.165264 -2.483569,0.283753 -10.824025,0.523213 -12.474541,0.358151 z"
     id="path3780"
     inkscape:connector-curvature="0" /><path
     style="opacity:1;fill:#ffff00;fill-opacity:0.88499999;stroke:#ffff00;stroke-width:1.52749491;stroke-miterlimit:4;stroke-dasharray:none;stroke-opacity:1"
     d="M 46.435845,71.405344 C 36.138835,70.877297 27.201168,68.363441 23.110898,64.844843 21.233473,63.229814 21.232179,63.222361 21.232179,54.022116 c 0,-4.494496 0.05702,-8.171811 0.126702,-8.171811 0.06969,0 0.671137,0.387256 1.336558,0.860567 6.051885,4.304688 19.389062,6.863526 31.494663,6.042489 10.219086,-0.693088 18.019898,-2.778073 22.605293,-6.041896 0.665422,-0.473638 1.266873,-0.86116 1.336558,-0.86116 0.06969,0 0.126703,3.677315 0.126703,8.171811 0,9.275197 0.01454,9.196036 -2.006003,10.92946 -3.288776,2.821456 -10.877974,5.315724 -18.487887,6.076234 -2.991342,0.298944 -8.973786,0.498308 -11.328921,0.377534 z"
     id="path3784"
     inkscape:connector-curvature="0" /><path
     style="opacity:1;fill:#008000;fill-opacity:1;stroke:#008000;stroke-width:1.52749491;stroke-miterlimit:4;stroke-dasharray:none;stroke-opacity:1"
     d="M 46.817719,92.857604 C 36.39219,92.398145 27.258426,89.873999 23.110898,86.306147 c -1.877425,-1.61503 -1.878719,-1.622483 -1.878719,-10.822728 0,-4.494495 0.05702,-8.17181 0.126702,-8.17181 0.06969,0 0.671137,0.387522 1.336558,0.861159 6.024036,4.287828 19.256959,6.814675 31.547746,6.02409 9.91877,-0.638008 18.028694,-2.804311 22.55221,-6.02409 0.665422,-0.473637 1.266873,-0.861159 1.336558,-0.861159 0.06969,0 0.126703,3.677315 0.126703,8.17181 0,9.200245 -0.0013,9.207698 -1.87872,10.822728 -3.456033,2.973005 -11.037515,5.455607 -18.869753,6.179015 -3.360695,0.310403 -8.242072,0.480431 -10.692464,0.372442 z"
     id="path3786"
     inkscape:connector-curvature="0" /><path
     d="m 71.444418,9.179831 c -5.817,-2.224 -13.522,-3.449 -21.699,-3.449 -8.177,0 -15.884,1.225 -21.702,3.449 -6.22,2.378 -9.646,5.699 -9.646,9.354 v 64.361 c 0,3.654 3.426,6.975 9.646,9.352 5.817,2.225 13.524,3.449 21.702,3.449 8.177,0 15.882,-1.225 21.699,-3.449 6.221,-2.377 9.647,-5.697 9.647,-9.352 v -64.361 c 10e-4,-3.655 -3.426,-6.976 -9.647,-9.354 z m -42.453,2.48 c 5.523,-2.112 12.894,-3.274 20.754,-3.274 7.859,0 15.229,1.162 20.751,3.273 5.047,1.929 7.941,4.434 7.941,6.874 0,2.439 -2.895,4.944 -7.941,6.874 -5.522,2.11 -12.892,3.273 -20.751,3.273 -7.86,0 -15.231,-1.163 -20.754,-3.273 -5.044,-1.929 -7.938,-4.434 -7.938,-6.874 0,-2.44 2.894,-4.945 7.938,-6.873 z m 41.505,78.108 c -0.345,0.131 -0.697,0.258 -1.056,0.383 -5.388,1.869 -12.327,2.89 -19.695,2.89 -7.86,0 -15.231,-1.162 -20.754,-3.273 -5.044,-1.93 -7.938,-4.434 -7.938,-6.873 v -16.145 c 1.629,1.521 3.983,2.895 6.991,4.043 5.817,2.225 13.524,3.449 21.702,3.449 8.177,0 15.882,-1.225 21.699,-3.449 3.01,-1.148 5.361,-2.521 6.993,-4.043 v 16.145 c -0.001,2.439 -2.895,4.943 -7.942,6.873 z m 0,-21.455 c -5.522,2.111 -12.892,3.273 -20.751,3.273 -7.86,0 -15.231,-1.162 -20.754,-3.273 -5.044,-1.928 -7.938,-4.432 -7.938,-6.871 v -16.145 c 1.629,1.522 3.983,2.894 6.991,4.044 5.817,2.224 13.524,3.448 21.702,3.448 8.177,0 15.882,-1.225 21.699,-3.448 3.01,-1.15 5.361,-2.521 6.993,-4.044 v 16.145 c -0.001,2.439 -2.895,4.943 -7.942,6.871 z m 0,-21.454 c -5.522,2.113 -12.892,3.274 -20.751,3.274 -7.86,0 -15.231,-1.161 -20.754,-3.273 -5.044,-1.928 -7.938,-4.433 -7.938,-6.873 v -16.144 c 1.629,1.523 3.983,2.894 6.991,4.044 5.817,2.224 13.524,3.449 21.702,3.449 8.177,0 15.882,-1.225 21.699,-3.449 3.01,-1.15 5.361,-2.521 6.993,-4.044 v 16.144 c -0.001,2.44 -2.895,4.945 -7.942,6.872 z"
     id="path66"
     inkscape:connector-curvature="0" /></svg>